<svg width="788" height="525" viewBox="0 0 788 525" fill="none" xmlns="http://www.w3.org/2000/svg">
<g id="Frame" clip-path="url(#clip0)">
<g id="Vector">
<path d="M791.22 165.703L791.219 165.705C779.627 179.768 764.972 192.149 747.911 202.285C732.771 211.186 716.298 217.786 699.493 223.897C694.818 225.598 690.115 227.261 685.409 228.925C673.212 233.238 660.989 237.561 649.147 242.566C613.16 257.772 580.922 279.166 548.764 300.506C546.8 301.81 544.836 303.113 542.872 304.414C508.732 327.036 474.428 349.17 435.505 363.448C384.765 382.058 327.691 386.139 274.366 374.965C272.316 374.533 270.242 374.082 268.149 373.627C258.712 371.574 248.908 369.442 239.35 368.647C227.664 367.674 216.275 368.692 206.281 374.33C202.027 376.729 198.384 379.816 194.874 383.008C194.07 383.74 193.273 384.476 192.477 385.212C189.791 387.694 187.122 390.161 184.22 392.384C172.711 401.197 158.082 405.786 143.71 410.222C127.265 415.292 110.399 420.395 93.1992 419.367C73.6697 418.203 55.8179 409.27 38.9517 400.034C13.8072 386.261 -10.584 371.493 -34.2219 355.728C-41.7983 350.671 -49.4972 345.22 -55.8795 338.98C-62.2604 332.741 -67.3004 325.736 -69.5906 317.579C-73.3042 304.328 -69.1756 291.555 -62.957 278.699C-60.9002 274.446 -58.6259 270.206 -56.3387 265.941C-55.1662 263.756 -53.9904 261.563 -52.8388 259.36C-49.4478 252.872 -46.2791 246.31 -44.0895 239.626C-36.3796 216.101 -41.6279 189.403 -57.7928 169.765C-59.6728 167.476 -61.7104 165.243 -63.7409 163.018L-63.8819 162.863C-65.9623 160.583 -68.0319 158.31 -69.9347 155.972C-73.742 151.295 -76.8459 146.405 -77.9963 140.801C-80.1285 130.387 -75.2814 121.239 -67.3187 113.16C-59.3546 105.08 -48.3549 98.1547 -38.3844 92.2124C8.7445 64.1312 50.1934 24.7814 67.0225 -24.1973C67.2068 -24.7333 67.3891 -25.2709 67.5714 -25.8086C69.4657 -31.3949 71.3649 -36.996 75.6785 -41.082C82.1926 -47.251 91.286 -50.2772 101.86 -51.3472C112.432 -52.4171 124.428 -51.526 136.691 -49.9105C144.601 -48.8685 152.597 -47.529 160.384 -46.2245C164.676 -45.5055 168.905 -44.7971 173.021 -44.1551C184.579 -42.3519 195.24 -41.0732 203.784 -41.5938L203.785 -41.5938C227.721 -43.0969 250.551 -53.743 272.698 -66.081C278.784 -69.4716 284.816 -72.9881 290.806 -76.4803C306.65 -85.7171 322.202 -94.7837 337.69 -100.898C368.76 -113.166 402.959 -119.849 437.776 -120.455C472.594 -121.061 507.141 -115.574 538.882 -104.4C557.483 -97.8331 575.19 -89.3927 592.917 -80.942C593.888 -80.4795 594.858 -80.017 595.828 -79.5548C614.523 -70.6505 633.295 -61.8497 653.169 -55.3737L653.321 -55.8403L653.169 -55.3737C666.078 -51.1688 679.479 -47.9319 692.839 -44.7051C699.379 -43.1255 705.909 -41.5483 712.366 -39.8611C732.041 -34.7205 751.089 -28.5499 767.91 -18.1659C799.323 1.22845 819.324 34.3363 822.892 68.6845C826.461 103.033 814.103 138.148 791.22 165.703Z" fill="#6C63FF"/>
<path d="M791.22 165.703L791.219 165.705C779.627 179.768 764.972 192.149 747.911 202.285C732.771 211.186 716.298 217.786 699.493 223.897C694.818 225.598 690.115 227.261 685.409 228.925C673.212 233.238 660.989 237.561 649.147 242.566C613.16 257.772 580.922 279.166 548.764 300.506C546.8 301.81 544.836 303.113 542.872 304.414C508.732 327.036 474.428 349.17 435.505 363.448C384.765 382.058 327.691 386.139 274.366 374.965C272.316 374.533 270.242 374.082 268.149 373.627C258.712 371.574 248.908 369.442 239.35 368.647C227.664 367.674 216.275 368.692 206.281 374.33C202.027 376.729 198.384 379.816 194.874 383.008C194.07 383.74 193.273 384.476 192.477 385.212C189.791 387.694 187.122 390.161 184.22 392.384C172.711 401.197 158.082 405.786 143.71 410.222C127.265 415.292 110.399 420.395 93.1992 419.367C73.6697 418.203 55.8179 409.27 38.9517 400.034C13.8072 386.261 -10.584 371.493 -34.2219 355.728C-41.7983 350.671 -49.4972 345.22 -55.8795 338.98C-62.2604 332.741 -67.3004 325.736 -69.5906 317.579C-73.3042 304.328 -69.1756 291.555 -62.957 278.699C-60.9002 274.446 -58.6259 270.206 -56.3387 265.941C-55.1662 263.756 -53.9904 261.563 -52.8388 259.36C-49.4478 252.872 -46.2791 246.31 -44.0895 239.626C-36.3796 216.101 -41.6279 189.403 -57.7928 169.765C-59.6728 167.476 -61.7104 165.243 -63.7409 163.018L-63.8819 162.863C-65.9623 160.583 -68.0319 158.31 -69.9347 155.972C-73.742 151.295 -76.8459 146.405 -77.9963 140.801C-80.1285 130.387 -75.2814 121.239 -67.3187 113.16C-59.3546 105.08 -48.3549 98.1547 -38.3844 92.2124C8.7445 64.1312 50.1934 24.7814 67.0225 -24.1973C67.2068 -24.7333 67.3891 -25.2709 67.5714 -25.8086C69.4657 -31.3949 71.3649 -36.996 75.6785 -41.082C82.1926 -47.251 91.286 -50.2772 101.86 -51.3472C112.432 -52.4171 124.428 -51.526 136.691 -49.9105C144.601 -48.8685 152.597 -47.529 160.384 -46.2245C164.676 -45.5055 168.905 -44.7971 173.021 -44.1551C184.579 -42.3519 195.24 -41.0732 203.784 -41.5938L203.785 -41.5938C227.721 -43.0969 250.551 -53.743 272.698 -66.081C278.784 -69.4716 284.816 -72.9881 290.806 -76.4803C306.65 -85.7171 322.202 -94.7837 337.69 -100.898C368.76 -113.166 402.959 -119.849 437.776 -120.455C472.594 -121.061 507.141 -115.574 538.882 -104.4C557.483 -97.8331 575.19 -89.3927 592.917 -80.942C593.888 -80.4795 594.858 -80.017 595.828 -79.5548C614.523 -70.6505 633.295 -61.8497 653.169 -55.3737L653.321 -55.8403L653.169 -55.3737C666.078 -51.1688 679.479 -47.9319 692.839 -44.7051C699.379 -43.1255 705.909 -41.5483 712.366 -39.8611C732.041 -34.7205 751.089 -28.5499 767.91 -18.1659C799.323 1.22845 819.324 34.3363 822.892 68.6845C826.461 103.033 814.103 138.148 791.22 165.703Z" fill="url(#paint0_linear)"/>
<path d="M791.22 165.703L791.219 165.705C779.627 179.768 764.972 192.149 747.911 202.285C732.771 211.186 716.298 217.786 699.493 223.897C694.818 225.598 690.115 227.261 685.409 228.925C673.212 233.238 660.989 237.561 649.147 242.566C613.16 257.772 580.922 279.166 548.764 300.506C546.8 301.81 544.836 303.113 542.872 304.414C508.732 327.036 474.428 349.17 435.505 363.448C384.765 382.058 327.691 386.139 274.366 374.965C272.316 374.533 270.242 374.082 268.149 373.627C258.712 371.574 248.908 369.442 239.35 368.647C227.664 367.674 216.275 368.692 206.281 374.33C202.027 376.729 198.384 379.816 194.874 383.008C194.07 383.74 193.273 384.476 192.477 385.212C189.791 387.694 187.122 390.161 184.22 392.384C172.711 401.197 158.082 405.786 143.71 410.222C127.265 415.292 110.399 420.395 93.1992 419.367C73.6697 418.203 55.8179 409.27 38.9517 400.034C13.8072 386.261 -10.584 371.493 -34.2219 355.728C-41.7983 350.671 -49.4972 345.22 -55.8795 338.98C-62.2604 332.741 -67.3004 325.736 -69.5906 317.579C-73.3042 304.328 -69.1756 291.555 -62.957 278.699C-60.9002 274.446 -58.6259 270.206 -56.3387 265.941C-55.1662 263.756 -53.9904 261.563 -52.8388 259.36C-49.4478 252.872 -46.2791 246.31 -44.0895 239.626C-36.3796 216.101 -41.6279 189.403 -57.7928 169.765C-59.6728 167.476 -61.7104 165.243 -63.7409 163.018L-63.8819 162.863C-65.9623 160.583 -68.0319 158.31 -69.9347 155.972C-73.742 151.295 -76.8459 146.405 -77.9963 140.801C-80.1285 130.387 -75.2814 121.239 -67.3187 113.16C-59.3546 105.08 -48.3549 98.1547 -38.3844 92.2124C8.7445 64.1312 50.1934 24.7814 67.0225 -24.1973C67.2068 -24.7333 67.3891 -25.2709 67.5714 -25.8086C69.4657 -31.3949 71.3649 -36.996 75.6785 -41.082C82.1926 -47.251 91.286 -50.2772 101.86 -51.3472C112.432 -52.4171 124.428 -51.526 136.691 -49.9105C144.601 -48.8685 152.597 -47.529 160.384 -46.2245C164.676 -45.5055 168.905 -44.7971 173.021 -44.1551C184.579 -42.3519 195.24 -41.0732 203.784 -41.5938L203.785 -41.5938C227.721 -43.0969 250.551 -53.743 272.698 -66.081C278.784 -69.4716 284.816 -72.9881 290.806 -76.4803C306.65 -85.7171 322.202 -94.7837 337.69 -100.898C368.76 -113.166 402.959 -119.849 437.776 -120.455C472.594 -121.061 507.141 -115.574 538.882 -104.4C557.483 -97.8331 575.19 -89.3927 592.917 -80.942C593.888 -80.4795 594.858 -80.017 595.828 -79.5548C614.523 -70.6505 633.295 -61.8497 653.169 -55.3737L653.321 -55.8403L653.169 -55.3737C666.078 -51.1688 679.479 -47.9319 692.839 -44.7051C699.379 -43.1255 705.909 -41.5483 712.366 -39.8611C732.041 -34.7205 751.089 -28.5499 767.91 -18.1659C799.323 1.22845 819.324 34.3363 822.892 68.6845C826.461 103.033 814.103 138.148 791.22 165.703Z" stroke="black"/>
</g>
<g id="right-heel">
<g id="Group 1">
<g id="Group 2">
<path id="Vector_2" d="M508.675 486.261L503.623 414.117L503.518 413.963L498.418 415.584L474.942 478.081L437.618 453.911L497.086 414.552L497.143 414.397L497.482 414.287L501.315 411.745L438.982 379.829L423.706 395.157L426.127 409.526L497.788 410.691V412.165L424.771 410.971L422.027 394.678L442.92 373.712L474.167 340.426L474.724 341.804L481.342 335.172L505.987 339.203V338.311L507.601 338.355V339.468L544.207 345.452L510.047 407.831L505.067 411.125V411.494V411.907L584 386.793L574.631 454.007L507.65 415.046L505.293 413.837L544.788 471.972L508.675 486.261ZM505.447 416.741L510.168 484.08L542.488 471.272L505.447 416.741ZM440.427 453.911L474.151 475.745L496.215 416.984L440.427 453.911ZM506.859 412.894L508.546 413.756L573.388 451.486L582.104 388.944L506.859 412.894ZM501.129 407.588L503.155 410.573L503.51 410.337L505.931 340.677L481.931 336.741L475.346 343.374L501.129 407.588ZM440.289 378.812L500.685 409.762L499.636 408.193L474.151 344.619L444.131 374.744L440.289 378.812ZM507.569 340.942L505.148 409.246L508.796 406.829L541.81 346.535L507.569 340.942Z" fill="#535461"/>
</g>
</g>
<path id="Vector_3" d="M502.023 321C493.729 320.991 485.472 322.113 477.478 324.337C473.354 325.482 469.317 326.92 465.396 328.641C444.507 337.76 427.719 354.355 418.279 375.218C408.839 396.08 407.418 419.727 414.292 441.583C421.165 463.439 435.844 481.952 455.489 493.54C475.134 505.128 498.348 508.967 520.642 504.316C542.935 499.664 562.723 486.851 576.178 468.357C589.632 449.863 595.797 427.001 593.48 404.194C591.163 381.387 580.528 360.256 563.633 344.888C546.738 329.521 524.783 321.009 502.016 321H502.023ZM501.711 483.177C485.862 483.171 470.492 477.706 458.154 467.688C445.815 457.671 437.251 443.706 433.883 428.111C430.515 412.516 432.546 396.23 439.639 381.957C446.732 367.685 458.46 356.286 472.875 349.652C476.541 347.962 480.349 346.6 484.253 345.584C493.796 343.089 503.758 342.67 513.475 344.354C523.192 346.038 532.441 349.787 540.607 355.35C548.773 360.914 555.669 368.166 560.835 376.622C566.002 385.078 569.321 394.546 570.571 404.394C571.821 414.242 570.974 424.246 568.086 433.739C565.198 443.232 560.335 451.997 553.821 459.45C547.307 466.904 539.292 472.875 530.308 476.966C521.324 481.057 511.578 483.174 501.719 483.177H501.711Z" fill="#535461"/>
</g>
<g id="left-heel">
<path id="Vector_4" d="M193.7 506L189.054 431.116L188.958 430.955L184.274 432.637L162.726 497.513L128.454 472.442L183.044 431.605L183.096 431.444L183.407 431.33L186.927 428.692L129.692 395.577L115.672 411.481L117.895 426.391L183.711 427.629V429.158L116.665 427.92L114.13 410.992L133.323 389.231L162.037 354.672L162.548 356.101L168.624 349.22L191.195 353.395V352.47L192.677 352.516V353.67L226.29 359.879L194.952 424.571L190.38 427.989V428.371V428.799L262.851 402.742L254.248 472.48L192.744 432.056L190.58 430.802L226.845 491.113L193.7 506ZM190.736 433.868L195.071 503.737L224.748 490.448L190.736 433.868ZM131.025 472.427L161.992 495.082L182.251 434.113L131.025 472.427ZM192.025 429.869L193.574 430.764L253.114 469.911L261.117 405.02L192.025 429.869ZM186.764 424.364L188.624 427.461L188.95 427.216L191.173 354.939L169.136 350.872L163.089 357.753L186.764 424.364ZM130.877 394.499L186.334 426.612L185.371 424.984L161.97 359.022L134.412 390.271L130.877 394.499ZM192.677 355.207L190.454 426.1L193.804 423.592L224.118 361.033L192.677 355.207Z" fill="#535461"/>
<path id="Vector_5" d="M269 405.136C266.204 392.872 260.545 381.423 252.473 371.702C249.477 368.09 246.172 364.737 242.596 361.682C228.846 349.961 211.544 343.079 193.405 342.117C175.266 341.154 157.316 346.166 142.373 356.365C127.431 366.564 116.341 381.373 110.844 398.468C105.348 415.563 105.755 433.976 112.003 450.818C118.251 467.659 129.986 481.976 145.366 491.52C160.746 501.065 178.9 505.297 196.979 503.553C215.059 501.809 232.04 494.187 245.258 481.884C258.475 469.581 267.182 453.293 270.01 435.575C270.668 431.404 270.999 427.189 271 422.967C271.005 416.969 270.334 410.988 269 405.136ZM188.709 483.833C176.001 483.82 163.605 479.943 153.207 472.728C142.809 465.514 134.914 455.313 130.595 443.512C126.276 431.711 125.743 418.884 129.068 406.773C132.393 394.663 139.415 383.857 149.179 375.826C158.943 367.794 170.975 362.927 183.64 361.886C196.304 360.844 208.986 363.679 219.961 370.005C230.936 376.331 239.672 385.841 244.98 397.242C250.288 408.642 251.912 421.381 249.629 433.724C247.015 447.793 239.488 460.513 228.357 469.668C217.226 478.824 203.196 483.836 188.709 483.833V483.833Z" fill="#535461"/>
</g>
<path id="head" d="M333.465 70.7022C335.054 75.3243 342.685 75.4696 346.601 78.8739C348.637 80.6453 349.584 83.2608 351.822 84.8384C354.932 87.0387 359.423 86.5543 363.384 86.0285C371.357 84.9767 379.92 84.3471 387.111 87.5369C389.662 88.6647 391.952 90.2423 394.615 91.1626C397.277 92.0829 400.582 92.1936 402.745 90.5606C404.475 89.2529 405.109 87.101 406.676 85.6618C407.892 84.527 409.585 83.8904 410.972 82.894C414.016 80.7629 415.328 77.2894 416.194 73.9682C417.984 67.1319 418.498 59.7628 415.448 53.2795C412.397 46.7961 405.057 41.5167 397.046 41.8557C394.592 41.9595 392.198 42.5476 389.751 42.7967C383.374 43.3987 377.071 41.4129 370.671 41.0738C368.815 40.8643 366.931 41.1026 365.204 41.7658C363.901 42.4375 362.777 43.3714 361.914 44.4989C358.984 48.0592 356.978 52.1979 356.051 56.5938C355.305 59.9082 355.268 62.9111 350.89 63.4231C345.914 64.032 330.101 60.9253 333.465 70.7022Z" fill="#472727"/>
<path id="Vector_6" d="M361.167 439.395H316.659V452.102H361.167V439.395Z" fill="#6C63FF"/>
<path id="Vector_7" opacity="0.1" d="M369.193 438.726H316.659V452.102H369.193V438.726Z" fill="#423F3F"/>
<g id="man-bike">
<path id="Vector_8" d="M289.479 386.471L257.557 357.319L247.582 366.673L279.504 395.825L289.479 386.471Z" fill="#6C63FF"/>
<path id="Vector_9" opacity="0.1" d="M289.479 386.471L257.557 357.319L247.582 366.673L279.504 395.825L289.479 386.471Z" fill="#4B4848"/>
<path id="Vector_10" opacity="0.1" d="M291.122 354.244C289.78 355.178 289.113 355.718 289.113 355.718C289.113 355.718 264.856 363.327 264.856 343.267C264.856 343.267 266.031 342.699 267.888 341.752C269.764 344.54 272.393 346.842 275.522 348.44C278.651 350.037 282.177 350.876 285.763 350.876H288.333L291.122 354.244Z" fill="black"/>
<path id="Vector_11" d="M265.735 339.076L245.885 351.135L304.011 395.924C304.011 395.924 312.55 391.1 308.056 385.588C308.056 385.588 293.075 373.874 292.326 357.336L287.832 351.824H285.292C280.999 351.825 276.811 350.598 273.307 348.315C269.804 346.031 267.158 342.803 265.735 339.076V339.076Z" fill="#ABB1D1"/>
<path id="Vector_12" opacity="0.1" d="M377.871 314.331C365.899 308.712 336.673 308.109 336.673 308.109L336.359 305.281L376.33 302.293L378.574 310.289C378.574 310.289 379.076 311.852 377.871 314.331Z" fill="black"/>
<path id="Vector_13" d="M336.606 306.731C336.606 306.731 371.864 307.422 380.867 314.331L376.366 230.732H327.604L336.606 306.731Z" fill="#ABB1D1"/>
<path id="Vector_14" opacity="0.05" d="M336.606 306.063C336.606 306.063 371.864 306.753 380.867 313.662L376.366 230.064H327.604L336.606 306.063Z" fill="black"/>
<path id="Vector_15" d="M363.745 244.081C363.745 244.081 451.396 241.406 453.184 251.578C454.972 261.751 365.533 257.464 365.533 257.464C365.533 257.464 358.381 251.037 363.745 244.081Z" fill="#535461"/>
<path id="Vector_16" opacity="0.05" d="M363.745 244.081C363.745 244.081 451.396 241.406 453.184 251.578C454.972 261.751 365.533 257.464 365.533 257.464C365.533 257.464 358.381 251.037 363.745 244.081Z" fill="black"/>
<path id="Vector_17" d="M294.041 297.611H278.719V422.675H294.041V297.611Z" fill="#4B4A4E"/>
<path id="Vector_18" opacity="0.1" d="M294.041 297.611V307.154C288.946 307.771 283.733 308.161 278.719 308.312V297.611H294.041Z" fill="black"/>
<path id="Vector_19" d="M338.548 406.054L456.028 298.949L462.585 307.778L350.47 415.987L338.548 406.054Z" fill="#444449"/>
<path id="Vector_20" opacity="0.1" d="M486.925 354.367C483.203 355.231 479.574 356.389 476.078 357.825L468.956 339.961C472.694 338.498 476.543 337.276 480.474 336.303L486.925 354.367Z" fill="black"/>
<path id="Vector_21" d="M502 409.653L494.279 414L440.413 265.707L438 259.071L450.691 252L453.869 261.767L502 409.653Z" fill="#3E3D45"/>
<path id="Vector_22" opacity="0.1" d="M454.838 261.189L440.295 265.068L437.688 258.534L451.403 251.572L454.838 261.189Z" fill="black"/>
<path id="Vector_23" d="M366.129 272.452L447.82 247.291C447.82 247.291 462.131 248.896 456.76 259.604L374.481 281.548C374.481 281.548 361.964 282.618 366.129 272.452Z" fill="#535461"/>
<path id="Vector_24" opacity="0.1" d="M275.07 428.93C275.07 433.106 274.717 437.275 274.016 441.401C266.889 440.932 259.525 440.251 252.309 439.57C253.912 431.475 253.712 423.167 251.722 415.145C258.753 413.784 265.932 412.483 272.94 411.306C274.36 417.09 275.074 423.001 275.07 428.93V428.93Z" fill="black"/>
<path id="Vector_25" opacity="0.1" d="M294.041 407.962V422.675H278.719V410.224C284.02 409.359 289.174 408.591 294.041 407.962Z" fill="black"/>
<path id="Vector_26" d="M193.526 428.907C193.526 428.907 318.843 398.258 328.983 409.954C339.123 421.649 349.867 437.266 318.269 442.839C286.672 448.411 191.163 433.359 191.163 433.359L193.526 428.907Z" fill="#59595E"/>
<path id="Vector_27" opacity="0.1" d="M255.37 377.443L239.384 391.242C236.552 387.814 233.352 384.673 229.833 381.868L244.757 367.166C248.6 370.299 252.151 373.737 255.37 377.443V377.443Z" fill="black"/>
<path id="Vector_28" d="M188.974 422.41L283.014 331.72L286.015 352.731L193.764 430.701L188.974 422.41Z" fill="#4C4C4F"/>
<path id="Vector_29" opacity="0.1" d="M188.244 437.389C193.483 437.389 197.73 433.496 197.73 428.694C197.73 423.893 193.483 420 188.244 420C183.006 420 178.759 423.893 178.759 428.694C178.759 433.496 183.006 437.389 188.244 437.389Z" fill="black"/>
<path id="Vector_30" d="M186.785 437.389C192.024 437.389 196.27 433.496 196.27 428.694C196.27 423.893 192.024 420 186.785 420C181.547 420 177.3 423.893 177.3 428.694C177.3 433.496 181.547 437.389 186.785 437.389Z" fill="#535461"/>
<path id="Vector_31" d="M500 421C505.523 421 510 417.194 510 412.5C510 407.806 505.523 404 500 404C494.477 404 490 407.806 490 412.5C490 417.194 494.477 421 500 421Z" fill="#535461"/>
<path id="Vector_32" opacity="0.1" d="M335.265 437.389C345.943 437.389 354.6 429.454 354.6 419.666C354.6 409.877 345.943 401.943 335.265 401.943C324.586 401.943 315.93 409.877 315.93 419.666C315.93 429.454 324.586 437.389 335.265 437.389Z" fill="black"/>
<path id="Vector_33" d="M336.359 437.389C346.836 437.389 355.33 429.454 355.33 419.666C355.33 409.877 346.836 401.943 336.359 401.943C325.882 401.943 317.389 409.877 317.389 419.666C317.389 429.454 325.882 437.389 336.359 437.389Z" fill="#535461"/>
<path id="Vector_34" d="M331.332 418.589L331.326 418.593C329.078 420.149 328.618 423.097 330.299 425.177L345.492 443.979C347.173 446.059 350.359 446.484 352.607 444.929L352.613 444.924C354.861 443.369 355.32 440.421 353.639 438.341L338.446 419.539C336.765 417.459 333.58 417.034 331.332 418.589Z" fill="#6C63FF"/>
<path id="Vector_35" d="M421.29 165.189L419.517 185.326C419.313 187.877 419.35 190.439 419.628 192.984C419.859 195.238 419.628 199.184 417.17 205.203C414.013 212.893 412.382 221.019 412.35 229.214V252.134L395.214 249.458C395.214 249.458 395.959 217.356 392.979 212.005C389.999 206.655 395.214 159.169 395.214 159.169L421.29 165.189Z" fill="#DB8B8B"/>
<path id="Vector_36" opacity="0.05" d="M420.411 175.167L419.517 185.326C419.315 187.875 419.355 190.435 419.636 192.978C419.867 195.231 419.636 199.177 417.177 205.203C414.021 212.893 412.389 221.019 412.357 229.214V252.134L395.222 249.458C395.222 249.458 395.967 217.356 392.987 212.005C390.878 208.213 392.875 183.287 394.224 169.061C394.782 163.209 395.222 159.169 395.222 159.169L421.297 165.189L420.411 175.167Z" fill="black"/>
<path id="Vector_37" opacity="0.1" d="M421.29 165.189L420.411 175.167C407.447 178.511 398.194 167.864 398.194 167.864C396.842 168.189 395.514 168.589 394.216 169.061C394.775 163.209 395.214 159.169 395.214 159.169L421.29 165.189Z" fill="black"/>
<path id="Vector_38" d="M403.685 99.9799C403.648 100.869 403.566 101.859 403.432 102.963C401.942 115.001 400.452 113.664 384.062 116.339C373.87 118.004 368.573 110.36 366.025 104.341C365.103 102.16 364.407 99.9078 363.946 97.6124L399.707 92.2619C399.707 92.2619 403.991 91.1851 403.685 99.9799Z" fill="#DB8B8B"/>
<path id="Vector_39" opacity="0.1" d="M329.793 415.809L310.264 425.35L304.256 421.261V418.535C311.003 418.101 317.559 416.306 323.446 413.281C325.249 412.354 326.946 411.441 328.305 410.637C329.094 413.792 329.793 415.809 329.793 415.809Z" fill="black"/>
<path id="Vector_40" opacity="0.1" d="M403.685 99.3111C401.599 101.897 398.945 104.072 395.887 105.703C392.829 107.334 389.432 108.386 385.904 108.794C382.377 109.203 378.793 108.959 375.375 108.078C371.956 107.197 368.774 105.698 366.025 103.672C365.103 101.491 364.407 99.239 363.946 96.9436L399.707 91.5931C399.707 91.5931 403.991 90.5163 403.685 99.3111Z" fill="black"/>
<path id="Vector_41" d="M408.625 84.9318C408.625 91.14 405.877 97.094 400.987 101.484C396.097 105.874 389.465 108.34 382.549 108.34C375.634 108.34 369.001 105.874 364.111 101.484C359.221 97.094 356.474 91.14 356.474 84.9318C356.474 84.5439 356.474 84.156 356.474 83.7681C356.646 77.5598 359.558 71.6671 364.569 67.3864C369.581 63.1056 376.282 60.7874 383.197 60.9417C390.113 61.096 396.677 63.7102 401.446 68.2092C406.214 72.7083 408.797 78.7235 408.625 84.9318V84.9318Z" fill="#DB8B8B"/>
<path id="Vector_42" opacity="0.1" d="M408.625 84.9318C408.627 87.0892 408.296 89.2364 407.641 91.3122C405.626 91.7066 403.524 91.5338 401.622 90.8173C398.835 89.8341 396.444 88.1421 393.769 86.9248C386.237 83.5005 377.274 84.176 368.93 85.3063C364.788 85.8681 360.087 86.3898 356.831 84.0222C356.719 83.9429 356.612 83.8581 356.511 83.7681C356.683 77.5598 359.595 71.6671 364.607 67.3864C369.618 63.1056 376.319 60.7874 383.235 60.9417C390.15 61.096 396.714 63.7102 401.483 68.2092C406.251 72.7082 408.834 78.7235 408.662 84.9318H408.625Z" fill="black"/>
<g id="man-bikess">
<path id="Vector_43" d="M264.856 348.287C264.856 348.287 283.402 339.767 290.569 334.283C294.884 330.996 299.523 328.047 304.432 325.47L327.7 313.14L376.329 309.883L378.574 317.048C378.574 317.048 382.315 327.47 344.907 336.589C307.5 345.707 288.796 360.037 288.796 360.037C288.796 360.037 264.856 367.176 264.856 348.287Z" fill="#DB8B8B"/>
<path id="Vector_44" opacity="0.05" d="M377.884 320.668C375.803 324.503 368.628 330.807 344.916 336.583C314.531 343.987 296.483 354.817 290.782 358.64C289.457 359.519 288.799 360.027 288.799 360.027C288.799 360.027 264.856 367.19 264.856 348.305C264.856 348.305 266.015 347.771 267.848 346.879C273.408 344.228 285.178 338.413 290.55 334.278C294.864 330.991 299.504 328.043 304.415 325.467L327.685 313.139L336.349 312.56L376.32 309.883L378.564 317.047C378.564 317.047 379.088 318.447 377.884 320.668Z" fill="black"/>
<path id="Vector_45" d="M292.916 295.857C290.737 295.71 288.568 295.455 286.422 295.093C278.001 293.681 256.771 290.721 251.06 295.746C243.894 302.02 246.282 313.006 265.4 314.575C284.518 316.143 317.379 311.961 323.956 305.68C323.956 305.654 312.064 297.145 292.916 295.857Z" fill="#535461"/>
<path id="Vector_46" d="M289.663 337.801L452.831 293.562L458.207 304.493L290.858 354.454L289.663 337.801Z" fill="#464649"/>
<path id="Vector_47" d="M337.532 338.882L331.119 370.869C330.311 375.139 329.07 379.338 327.412 383.416C323.654 392.427 326.056 405.059 327.879 411.95C328.687 414.993 329.362 416.917 329.362 416.917L310.087 426.019L304.156 422.118V419.518L303.415 361.656C298.967 352.554 300.449 338.902 303.415 333.701C304.258 331.992 304.851 330.196 305.179 328.357C306.662 321.387 307.121 311.596 307.121 311.596C307.121 311.596 318.983 294.043 333.069 305.745C338.258 310.056 340.23 315.692 340.646 321.088C341.372 330.327 337.532 338.882 337.532 338.882Z" fill="#DB8B8B"/>
<path id="Vector_48" opacity="0.1" d="M340.737 320.893C330.372 326.196 312.339 327.696 304.985 328.088C306.48 321.189 306.943 311.497 306.943 311.497C306.943 311.497 318.9 294.12 333.099 305.705C338.331 309.972 340.318 315.551 340.737 320.893Z" fill="black"/>
<path id="Vector_49" d="M366.016 304.789C358.061 308.461 350.543 312.804 343.573 317.756C331.604 326.185 301.68 326.833 301.68 326.833V317.108C302.428 305.438 289.711 292.471 272.505 256.164C261.515 232.979 264.56 219.856 268.196 213.373C270.261 209.71 272.505 208.186 272.505 208.186L366.016 223.746L369.36 232.434L376.489 250.977C376.489 250.977 350.306 252.274 345.817 254.219C341.329 256.164 344.321 273.669 344.321 273.669C339.833 291.822 366.016 304.789 366.016 304.789Z" fill="#ABB1D1"/>
<path id="Vector_50" opacity="0.1" d="M369.193 232.532C368.843 235.572 368.843 237.479 368.843 237.479C368.843 237.479 351.751 249.847 322.768 230.969C293.785 212.092 267.774 217.299 267.774 217.299C267.774 217.299 268.079 215.789 268.696 213.394C270.747 209.716 272.976 208.186 272.976 208.186L365.871 223.809L369.193 232.532Z" fill="black"/>
<path id="Vector_51" d="M432.929 164.177C430.982 177.386 430.334 194.037 430.334 194.037C413.183 205.721 399.761 190.791 399.761 190.791C383.564 194.576 375.951 206.916 372.364 217.685C370.443 223.51 369.376 229.523 369.187 235.581C369.187 235.581 364.654 238.827 356.302 239.476C348.405 240.054 337.086 238.262 322.955 229.09C293.873 210.265 267.774 215.458 267.774 215.458C267.774 215.458 272.994 189.493 284.925 181.703C296.856 173.914 305.804 164.177 320.718 134.316C335.631 104.456 366.205 111.597 366.205 111.597C366.205 111.597 367.696 105.754 395.286 111.597C402.006 113.13 408.227 115.998 413.459 119.977C428.216 130.778 435.374 147.533 432.929 164.177Z" fill="white"/>
<path id="Vector_52" opacity="0.05" d="M372.111 217.755C370.187 223.587 369.118 229.608 368.929 235.674C368.929 235.674 364.387 238.924 356.022 239.574C355.786 239.16 355.605 238.724 355.484 238.274C353.99 232.425 342.785 222.025 342.785 222.025C335.316 216.175 333.822 205.776 333.822 205.776L321.497 174.253L317.389 171.328C317.389 171.328 334.569 159.629 349.508 169.378C364.447 179.127 359.966 199.926 359.966 199.926L362.953 207.076C366.053 209.351 369.205 213.361 372.111 217.755Z" fill="black"/>
<path id="Vector_53" d="M319.578 170.7L336.095 205.147C336.095 205.147 337.596 215.546 345.104 221.396C345.104 221.396 356.366 231.795 357.867 237.644C359.369 243.494 380.391 259.092 380.391 259.092C380.391 259.092 399.911 274.691 401.413 280.541C401.413 280.541 419.431 285.09 417.179 294.189C417.179 294.189 430.693 282.49 417.179 271.441C403.665 260.392 385.646 237.644 385.646 237.644C385.646 237.644 375.135 213.596 365.375 206.447L362.372 199.298C362.372 199.298 366.877 178.499 351.861 168.75C336.846 159.001 319.578 170.7 319.578 170.7Z" fill="#DB8B8B"/>
<path id="Vector_54" opacity="0.1" d="M352.149 143.35L362.626 179.166C362.626 179.166 330.447 183.725 323.712 179.166C316.977 174.608 304.256 173.306 304.256 173.306C304.256 173.306 317.726 139.443 325.209 135.536C332.692 131.628 352.149 143.35 352.149 143.35Z" fill="black"/>
<path id="Vector_55" d="M352.149 142.095L362.626 177.911C362.626 177.911 330.447 182.469 323.712 177.911C316.977 173.353 304.256 172.05 304.256 172.05C304.256 172.05 317.726 138.187 325.209 134.28C332.692 130.373 352.149 142.095 352.149 142.095Z" fill="white"/>
<path id="Vector_56" opacity="0.05" d="M288.204 181.192C288.204 181.192 307.579 185.749 313.541 197.466C319.503 209.183 335.63 211.325 335.63 211.325" fill="black"/>
</g>
<path id="Vector_57" d="M323.004 414.982C327.046 412.904 330.591 410.827 330.9 409.968C330.9 409.968 341.099 419.871 350.184 422.946C353.239 423.984 356.164 425.322 358.908 426.935C362.506 429.012 367.639 431.457 372.299 431.457C372.299 431.457 382.836 439.767 362.513 441.152C342.19 442.537 294.77 437.69 294.77 437.69L297.781 420.377C306.578 420.851 315.337 418.978 323.004 414.982Z" fill="#ABB1D1"/>
</g>
</g>
<defs>
<linearGradient id="paint0_linear" x1="44" y1="420" x2="438.031" y2="-216.878" gradientUnits="userSpaceOnUse">
<stop stop-color="#7B4AE2"/>
<stop offset="1" stop-color="#07FEEF"/>
</linearGradient>
<clipPath id="clip0">
<rect width="788" height="525" fill="white"/>
</clipPath>
</defs>
</svg>
